<svg xmlns="http://www.w3.org/2000/svg" xmlns:xlink="http://www.w3.org/1999/xlink" xmlns:serif="http://www.serif.com/" viewBox="0 0 32 40" version="1.1" xml:space="preserve" style="" x="0px" y="0px" fill-rule="evenodd" clip-rule="evenodd" stroke-linejoin="round" stroke-miterlimit="2"><g transform="matrix(1,0,0,1,-52,-136)"><path d="M64.918,154.423L57.748,158.008C55.658,158.138 54,159.877 54,162C54,164.208 55.792,166 58,166C60.208,166 62,164.208 62,162C62,160.734 61.411,159.605 60.492,158.872L67,155.618L67,158.126C65.276,158.571 64,160.138 64,162C64,164.208 65.792,166 68,166C70.208,166 72,164.208 72,162C72,160.138 70.724,158.571 69,158.126L69,155.618L75.508,158.872C74.589,159.605 74,160.734 74,162C74,164.208 75.792,166 78,166C80.208,166 82,164.208 82,162C82,159.877 80.342,158.138 78.252,158.008L71.082,154.423C74.252,153.188 76.5,150.104 76.5,146.5C76.5,141.809 72.691,138 68,138C63.309,138 59.5,141.809 59.5,146.5C59.5,150.104 61.748,153.188 64.918,154.423ZM78,160C79.104,160 80,160.896 80,162C80,163.104 79.104,164 78,164C76.896,164 76,163.104 76,162C76,160.896 76.896,160 78,160ZM58,160C59.104,160 60,160.896 60,162C60,163.104 59.104,164 58,164C56.896,164 56,163.104 56,162C56,160.896 56.896,160 58,160ZM68,160C69.104,160 70,160.896 70,162C70,163.104 69.104,164 68,164C66.896,164 66,163.104 66,162C66,160.896 66.896,160 68,160ZM71.464,152C70.772,150.804 69.479,150 68,150C66.521,150 65.228,150.805 64.536,152C65.535,152.631 66.719,152.998 67.988,153L68.012,153C69.281,152.998 70.464,152.631 71.464,152ZM72.988,150.666C73.932,149.537 74.5,148.085 74.5,146.5C74.5,142.913 71.587,140 68,140C64.413,140 61.5,142.913 61.5,146.5C61.5,148.085 62.068,149.537 63.012,150.666C64.089,149.059 65.922,148 68,148C70.078,148 71.911,149.059 72.988,150.666ZM68,141C66.344,141 65,142.344 65,144C65,145.656 66.344,147 68,147C69.656,147 71,145.656 71,144C71,142.344 69.656,141 68,141ZM68,143C68.552,143 69,143.448 69,144C69,144.552 68.552,145 68,145C67.448,145 67,144.552 67,144C67,143.448 67.448,143 68,143Z"/></g><text x="0" y="47" fill="#000000" font-size="5px" font-weight="bold" font-family="'Helvetica', Helvetica, Arial-Unicode, Arial, Sans-serif">Created by mpanicon</text><text x="0" y="52" fill="#000000" font-size="5px" font-weight="bold" font-family="'Helvetica'"></text></svg>